<?xml version="1.0" encoding="UTF-8"?>
<svg id="Layer_1" data-name="Layer 1" xmlns="http://www.w3.org/2000/svg" xmlns:xlink="http://www.w3.org/1999/xlink" viewBox="0 0 240 39.2">
  <defs>
    <style>
      .cls-1 {
        fill: url(#linear-gradient);
      }

      .cls-2 {
        fill: #07212f;
      }
    </style>
    <linearGradient id="linear-gradient" x1="239.33" y1="8.43" x2="218.46" y2="37.73" gradientUnits="userSpaceOnUse">
      <stop offset="0" stop-color="#009bdf"/>
      <stop offset="1" stop-color="#00a651"/>
    </linearGradient>
  </defs>
  <path class="cls-2" d="m56.4,27.4h5.47v2.07c0,1.47.33,2.55.98,3.24s1.72,1.03,3.21,1.03h11.24c1.49,0,2.56-.34,3.21-1.03s.98-1.77.98-3.24v-3.02c0-1.49-.33-2.57-.98-3.24s-1.72-1.01-3.21-1.01h-11.54v-5.44h11.37c1.36-.05,2.34-.42,2.93-1.1s.88-1.73.88-3.14v-2.56c0-1.49-.33-2.58-.99-3.27s-1.73-1.03-3.2-1.03h-10.72c-1.47,0-2.53.34-3.18,1.03-.65.69-.98,1.78-.98,3.27v2.07h-5.47v-2.34c0-6.33,3.16-9.5,9.47-9.5h11.05c3.21,0,5.59.78,7.14,2.34s2.33,3.95,2.33,7.16v.71c0,2.19-.39,4-1.16,5.43s-1.89,2.48-3.36,3.17c1.65.49,2.91,1.47,3.78,2.94s1.31,3.42,1.31,5.85v1.96c0,6.31-3.16,9.47-9.47,9.47h-11.59c-6.33,0-9.5-3.16-9.5-9.47v-2.34Z"/>
  <path class="cls-2" d="m95.51,10.23V.19h5.36v10.04h6.71v5.36h-6.71v18.26h9.52v5.36h-9.52c-.73,0-1.41-.14-2.07-.42s-1.22-.66-1.71-1.14-.88-1.05-1.16-1.7-.42-1.35-.42-2.1V10.23Z"/>
  <path class="cls-2" d="m143.46,27.45h-19.18v6.39h19.18v5.36h-19.18c-.73,0-1.41-.14-2.07-.42s-1.22-.66-1.7-1.14-.86-1.05-1.14-1.7-.42-1.35-.42-2.1V15.59c0-.74.14-1.44.42-2.1s.66-1.22,1.14-1.7,1.05-.86,1.7-1.14c.65-.28,1.34-.42,2.07-.42h13.82c.74,0,1.44.14,2.1.42.65.28,1.22.66,1.7,1.14s.86,1.05,1.14,1.7c.28.65.42,1.35.42,2.1v11.86Zm-19.18-11.86v6.5h13.82v-6.5h-13.82Z"/>
  <path class="cls-2" d="m157.35,15.59v18.26h13.82v-4.9h5.36v4.9c0,.74-.14,1.44-.42,2.1s-.66,1.22-1.14,1.7-1.05.86-1.7,1.14-1.35.42-2.1.42h-13.82c-.73,0-1.41-.14-2.07-.42s-1.22-.66-1.7-1.14-.86-1.05-1.14-1.7-.42-1.35-.42-2.1V15.59c0-.74.14-1.44.42-2.1s.66-1.22,1.14-1.7,1.05-.86,1.7-1.14c.65-.28,1.34-.42,2.07-.42h13.82c.74,0,1.44.14,2.1.42.65.28,1.22.66,1.7,1.14s.86,1.05,1.14,1.7.42,1.35.42,2.1v4.9h-5.36v-4.9h-13.82Z"/>
  <path class="cls-2" d="m210.72,39.2h-5.36V15.59h-14.94v23.62h-5.33V0h5.33v15.34c.04-.71.2-1.37.49-2s.68-1.17,1.16-1.63,1.04-.83,1.67-1.09,1.32-.39,2.04-.39h9.58c.74,0,1.44.14,2.1.42.65.28,1.22.66,1.7,1.14s.86,1.05,1.14,1.7.42,1.35.42,2.1v23.62Z"/>
  <path class="cls-1" d="m239.6,18.15h-6.04c-.92,0-1.66-.75-1.66-1.66v.86s0,0,0,0v-6.89c0-.22-.18-.4-.4-.4h-7.29c-.22,0-.4.18-.4.4v7.29c0,.22.18.4.4.4h6.89s0,0,0,0h-.86c.92,0,1.67.75,1.67,1.67v-.86s0,0,0,0v6.49s0,0,0,0v-.86c0,.92-.75,1.67-1.67,1.67h-10.64c-.36,0-.65.29-.65.65v11.66c0,.36.29.65.65.65h11.66c.36,0,.65-.29.65-.65v-10.65c0-.91.75-1.65,1.66-1.65h-.86s0,0,0,0h6.89c.22,0,.4-.18.4-.4v-7.29c0-.22-.18-.4-.4-.4Z"/>
  <path class="cls-2" d="m11.15,39.2L0,.19h5.58l8.65,31.04L22.85.19h5.58l8.62,31.04L45.7.19h5.58l-11.15,39.01h-6.12l-8.35-29.24-8.38,29.24h-6.12Z"/>
</svg>